{
  "accessors": [
    {
      "bufferView": 2,
      "componentType": 5126,
      "count": 18104,
      "max": [
        0.15444323420524597,
        0.1352679580450058,
        0.9973459243774414
      ],
      "min": [
        -0.15642260015010834,
        -0.18119999766349792,
        -0.0005386624252423644
      ],
      "type": "VEC3"
    },
    {
      "bufferView": 2,
      "byteOffset": 217248,
      "componentType": 5126,
      "count": 18104,
      "max": [
        0.9999088048934937,
        0.9998369216918945,
        0.9999991655349731
      ],
      "min": [
        -0.9982240200042725,
        -0.999954342842102,
        -0.9999990463256836
      ],
      "type": "VEC3"
    },
    {
      "bufferView": 1,
      "componentType": 5126,
      "count": 18104,
      "max": [
        1.0,
        0.0
      ],
      "min": [
        0.0,
        0.0
      ],
      "type": "VEC2"
    },
    {
      "bufferView": 0,
      "componentType": 5125,
      "count": 46548,
      "type": "SCALAR"
    }
  ],
  "asset": {
    "extras": {
      "author": "David Gallardo (https://sketchfab.com/xjormaeko)",
      "license": "CC-BY-4.0 (http://creativecommons.org/licenses/by/4.0/)",
      "source": "https://sketchfab.com/3d-models/la-venus-de-disco-d9ce7035f30b48f79ee5d400bdc2f14e",
      "title": "La Venus de Disco"
    },
    "generator": "Sketchfab-13.74.0",
    "version": "2.0"
  },
  "bufferViews": [
    {
      "buffer": 0,
      "byteLength": 186192,
      "name": "floatBufferViews",
      "target": 34963
    },
    {
      "buffer": 0,
      "byteLength": 144832,
      "byteOffset": 186192,
      "byteStride": 8,
      "name": "floatBufferViews",
      "target": 34962
    },
    {
      "buffer": 0,
      "byteLength": 434496,
      "byteOffset": 331024,
      "byteStride": 12,
      "name": "floatBufferViews",
      "target": 34962
    }
  ],
  "buffers": [
    {
      "byteLength": 765520,
      "uri": "scene.bin"
    }
  ],
  "materials": [
    {
      "doubleSided": true,
      "name": "material_0",
      "pbrMetallicRoughness": {
        "roughnessFactor": 0.2139476132280247
      }
    }
  ],
  "meshes": [
    {
      "name": "Object_0",
      "primitives": [
        {
          "attributes": {
            "NORMAL": 1,
            "POSITION": 0,
            "TEXCOORD_0": 2
          },
          "indices": 3,
          "material": 0,
          "mode": 4
        }
      ]
    }
  ],
  "nodes": [
    {
      "children": [
        1
      ],
      "matrix": [
        1.0,
        0.0,
        0.0,
        0.0,
        0.0,
        2.220446049250313e-16,
        -1.0,
        0.0,
        0.0,
        1.0,
        2.220446049250313e-16,
        0.0,
        0.0,
        0.0,
        0.0,
        1.0
      ],
      "name": "Sketchfab_model"
    },
    {
      "children": [
        2
      ],
      "name": "venus2.obj.cleaner.materialmerger.gles"
    },
    {
      "mesh": 0,
      "name": "Object_2"
    }
  ],
  "scene": 0,
  "scenes": [
    {
      "name": "Sketchfab_Scene",
      "nodes": [
        0
      ]
    }
  ]
}
